<?xml version="1.0" encoding="UTF-8"?>
<svg version="1.1" xmlns="http://www.w3.org/2000/svg" width="1024" height="1024">
<path d="M0 0 C0.85992068 -0.03481704 1.71984136 -0.06963408 2.60582024 -0.10550618 C4.02400477 -0.14792664 4.02400477 -0.14792664 5.4708395 -0.19120407 C6.47534678 -0.22819121 7.47985407 -0.26517835 8.51480097 -0.30328631 C11.89867481 -0.42414024 15.28282905 -0.52993096 18.66723537 -0.63474655 C21.08898829 -0.71601631 23.51073602 -0.79744095 25.9324789 -0.87900925 C48.2204969 -1.60457948 70.51510735 -2.02838442 92.81195831 -2.36911011 C95.80930492 -2.41574823 98.80663504 -2.46332538 101.80395412 -2.51169968 C102.54875825 -2.52368419 103.29356238 -2.53566871 104.06093632 -2.5480164 C114.53325527 -2.72118655 124.99573676 -3.01705924 135.4619309 -3.41251709 C253.16165733 -7.85438254 253.16165733 -7.85438254 279.68304539 16.20249939 C301.3885057 37.23701206 303.9409582 66.28207117 304.63828015 95.10086823 C304.8684157 110.65933822 304.18378711 126.19239159 303.40516442 141.72737217 C302.83619391 153.27181493 302.56890878 164.81812981 302.31989026 176.37319303 C301.80302003 200.05953825 300.92907494 223.72103829 299.80370998 247.38576126 C263.02026025 250.01748353 263.02026025 250.01748353 251.1615181 239.92818069 C249.04177178 237.95593812 247.02869497 235.90695483 245.01074123 233.83107376 C243.4979123 232.39254016 241.98028281 230.95904075 240.45826626 229.53023148 C236.5083953 225.75921698 232.70360131 221.87039442 228.93224239 217.92161179 C226.59780484 215.49160261 224.22947678 213.09947662 221.8511343 210.71248245 C189.52865236 178.05492982 189.52865236 178.05492982 189.57983303 155.55714798 C189.91456925 150.54160158 190.7491289 145.74769122 191.98957729 140.87895584 C192.16285046 139.8679985 192.33612362 138.85704117 192.51464748 137.81544876 C192.72019379 136.6778338 192.72019379 136.6778338 192.92989254 135.51723671 C193.56087694 129.97604753 192.8523623 126.65041757 189.61764431 122.06090164 C181.61220655 112.64542606 174.15956951 106.45852253 161.58218479 105.2675457 C155.08130405 104.95822258 148.60181738 105.11166459 142.1019001 105.3578825 C138.17626928 105.48471012 134.25017726 105.4947927 130.32281399 105.51839066 C122.91864425 105.58004879 115.52052819 105.74341371 108.11900067 105.94538045 C99.67941504 106.17056854 91.23950735 106.27929163 82.79765558 106.37928915 C65.46286413 106.58718337 48.13393092 106.93790571 30.80370998 107.38576126 C31.3993412 107.77977505 31.99497242 108.17378883 32.60865307 108.57974243 C40.80802132 114.34507778 49.6102132 121.31381897 51.9539938 131.51700211 C53.79084583 142.50260235 53.16788882 153.86891898 52.83158875 164.95316029 C52.70520731 169.83187396 52.69471114 174.7109245 52.67108059 179.59102249 C52.60930143 188.80082578 52.44574228 198.00579136 52.2440908 207.2134788 C52.01930763 217.7088226 51.91027567 228.20441715 51.81018209 238.7015748 C51.60200863 260.2656545 51.25101402 281.82540134 50.80370998 303.38576126 C51.66450004 303.27342541 51.66450004 303.27342541 52.54267979 303.15882015 C62.35134824 302.05545244 71.48732218 301.36338783 79.69883442 307.53414249 C83.46583471 310.75700041 86.99250333 314.16882729 90.48339748 317.68654251 C92.04162779 319.196769 93.60207065 320.70471555 95.16458035 322.21051407 C98.41432551 325.36964909 101.61825856 328.56795981 104.79785061 331.7976265 C108.83025141 335.88240403 112.97671819 339.82282735 117.17182636 343.73941135 C120.42973967 346.81788308 123.60114315 349.97589024 126.75543499 353.16013527 C128.25170248 354.64722103 129.77505891 356.10766684 131.32723522 357.53629875 C139.58968331 365.21444088 144.17385064 371.9709303 144.70806789 383.36388016 C144.95389456 392.05409033 144.50016383 400.72540855 143.80370998 409.38576126 C125.24668534 410.57067017 106.69980096 411.44306538 88.11275578 411.97636986 C79.47388485 412.23099975 70.85883845 412.5751148 62.23535061 413.15773392 C54.68809393 413.66738314 47.15802001 413.98099462 39.59404504 414.090186 C35.60237567 414.15388433 31.65962318 414.2936676 27.68440533 414.6722641 C7.80540023 416.48150279 -6.52500895 410.10018841 -21.86821985 397.66463423 C-43.14011542 379.92863642 -58.61379689 360.89423803 -61.20107393 332.66916479 C-62.14594804 320.42895003 -62.162948 308.19460604 -61.89777498 295.92853512 C-61.77612769 290.14580328 -61.75973394 284.37042691 -61.80920124 278.58670807 C-61.81628545 277.74975464 -61.82336965 276.91280121 -61.83066853 276.05048556 C-61.84551683 274.34788234 -61.86059626 272.64528113 -61.87590371 270.94268198 C-62.0067561 255.14096167 -61.83800798 239.35405226 -61.55745362 223.55499776 C-61.32583791 210.12294902 -61.35076788 196.71141701 -61.5639658 183.27931595 C-61.81403399 167.51598587 -61.9024698 151.7646027 -61.74605453 135.99967539 C-61.72963138 134.30551297 -61.71338696 132.6113488 -61.6973238 130.91718292 C-61.6893286 130.08457642 -61.6813334 129.25196991 -61.67309592 128.3941329 C-61.62815574 122.6458952 -61.69150835 116.90526408 -61.79959583 111.15808105 C-62.33533213 79.87916897 -61.93951575 53.84922477 -39.368884 30.2174732 C-10.01381086 0.3548882 -10.01381086 0.3548882 0 0 Z " fill="#FFFFFF" transform="translate(533.1962900161743,293.6142387390137)"/>
<path d="M0 0 C3.24144068 1.35804944 4.68200606 2.58072296 6.43322754 5.61256409 C6.88069053 6.36273772 7.32815351 7.11291136 7.78917599 7.88581753 C8.27447057 8.7092619 8.75976515 9.53270628 9.25976562 10.38110352 C17.10415327 23.14071293 25.95807929 35.03719819 35.5 46.5625 C35.93764884 47.09329241 36.37529767 47.62408483 36.82620859 48.17096186 C56.47005107 71.84651942 79.32262761 90.54748046 110.76901054 93.96141338 C121.94494286 94.97573577 133.12257565 95.28714237 144.33984375 95.3671875 C145.49214179 95.37583761 146.64443982 95.38448772 147.83165598 95.39339995 C172.86393582 95.51569047 197.78190175 94.32032173 222.72793579 92.32256413 C304.38317477 85.79598363 304.38317477 85.79598363 328.03423005 105.16990119 C346.07479879 120.83226291 357.31970604 140.32972647 359.56523132 164.3033905 C360.22426831 175.69255371 359.4441004 186.93566408 358.43322754 198.27929688 C357.9092525 204.81684519 357.69090318 211.3652272 357.44140625 217.91796875 C356.91456296 230.63791233 356.07976098 243.31556227 355 256 C343.44837115 258.49366573 329.12234927 261.09254492 318 256 C315.06962279 253.50955591 312.96235846 250.64777886 310.78222656 247.49511719 C296.78013548 227.19104857 296.78013548 227.19104857 275.15115356 216.98361206 C260.80551127 215.058338 246.21110732 215.81760014 231.796875 216.390625 C229.5089093 216.47062298 227.22091968 216.54993978 224.9329071 216.62858582 C204.57189919 217.36218404 184.23371727 218.52685175 163.9169451 220.05062592 C70.85417381 226.99462698 70.85417381 226.99462698 37.46534312 199.27484858 C13.53640252 178.44563381 -3.56980874 153.62545005 -6.08752441 121.49023438 C-6.93004332 107.28110643 -6.02176911 93.14728295 -4.75386 78.99354172 C-3.99356841 70.35200635 -3.64809872 61.70524713 -3.32135797 53.03824115 C-2.64486522 35.32008595 -1.49831539 17.66738573 0 0 Z " fill="#FFFFFF" transform="translate(69,342)"/>
<path d="M0 0 C32.2167598 -2.08356171 64.41341985 -3.66024703 96.68242197 -4.59587965 C100.54717926 -4.70835437 104.41180546 -4.82485174 108.27636719 -4.94384766 C109.04527216 -4.96745559 109.81417714 -4.99106353 110.60638227 -5.01538686 C121.33518785 -5.35309824 132.03337548 -5.90489335 142.74228349 -6.63611099 C161.23652516 -7.89848402 179.70171326 -8.74578116 198.2421875 -8.7890625 C198.96524484 -8.79120904 199.68830217 -8.79335557 200.43327034 -8.79556715 C245.26760356 -8.83900024 276.04569873 1.14824147 308.16835888 33.16125311 C311.71633372 36.7520701 315.18563803 40.41417863 318.6328125 44.1015625 C319.11706056 44.61729401 319.60130863 45.13302552 320.10023087 45.66438526 C327.05304754 53.08457456 333.70711871 60.70260281 340.16845703 68.55712891 C340.94928162 69.49216263 341.73010621 70.42719636 342.53459215 71.39056444 C351.87847971 82.78389715 357.00565378 91.35969442 355.52142143 106.37885094 C355.34935236 107.57383013 355.17728329 108.76880932 355 110 C320.03577003 111.64230195 285.08062503 112.8844036 250.08587363 113.62563839 C245.91127211 113.71438842 241.73674555 113.80629007 237.56225586 113.90014648 C236.31619003 113.92808255 236.31619003 113.92808255 235.04495115 113.95658297 C223.402663 114.22411975 211.77765084 114.66090737 200.14661677 115.23517914 C74.89873242 121.41564762 74.89873242 121.41564762 38.09615773 88.51521748 C34.02730106 84.70445513 30.16672508 80.719479 26.34765625 76.66015625 C25.61482634 75.89458365 24.88199644 75.12901105 24.12695956 74.34023929 C8.79169512 58.16066988 -1.93573087 42.69696966 -1.7304107 19.79405487 C-1.5203522 13.14752684 -0.9229441 6.58343074 0 0 Z " fill="#FFFFFF" transform="translate(69,593)"/>
<path d="M0 0 C0.89773933 -0.03282599 1.79547866 -0.06565198 2.72042221 -0.0994727 C4.21738234 -0.14626242 4.21738234 -0.14626242 5.74458408 -0.19399738 C6.79638515 -0.2301301 7.84818621 -0.26626281 8.93186003 -0.30349046 C12.48788316 -0.42303595 16.04410712 -0.53415904 19.6004343 -0.64426899 C21.46321113 -0.70406217 21.46321113 -0.70406217 23.3636198 -0.76506329 C47.25586189 -1.52737658 71.15192349 -2.01078208 95.05333203 -2.37427045 C98.98182276 -2.43412363 102.91027802 -2.49606393 106.83871555 -2.55930805 C108.01144931 -2.57813308 108.01144931 -2.57813308 109.20787466 -2.59733842 C120.20140971 -2.77843079 131.18578154 -3.08051707 142.17347224 -3.47978844 C262.35800091 -7.84382455 262.35800091 -7.84382455 289.0270853 15.69159222 C291.20071633 17.74696538 293.28863776 19.87270857 295.36630344 22.02443218 C295.85639165 22.50749521 296.34647985 22.99055825 296.85141921 23.48825955 C311.21223229 37.71716207 312.76108133 52.4559079 312.9486618 71.87203217 C312.92404055 83.01516742 312.51293402 94.13958671 311.86239719 105.26271343 C281.2886228 106.80852643 250.72416984 107.98526957 220.12038897 108.68409051 C216.46637579 108.76783651 212.81243899 108.85456098 209.15853977 108.94313335 C208.06790735 108.96949555 208.06790735 108.96949555 206.95524196 108.99639032 C196.77487923 109.24862572 186.61216606 109.66050173 176.44329681 110.20291556 C158.92300315 111.13726323 141.42091486 111.75958669 123.87411594 111.80568218 C122.85389867 111.80935992 122.85389867 111.80935992 121.81307095 111.81311196 C85.30787323 111.89722019 57.02002993 107.57626543 30.16362095 81.09311199 C-5.31387137 44.59282826 -5.31387137 44.59282826 -5.27041531 28.44630718 C-5.27137203 27.67464718 -5.27232876 26.90298717 -5.27331448 26.10794353 C-5.27399527 24.47634582 -5.272148 22.8447454 -5.2679739 21.21315289 C-5.26261694 18.70682522 -5.26792599 16.20067618 -5.27432156 13.69435406 C-5.2736609 12.11167137 -5.27238 10.52898879 -5.27041531 8.94630718 C-5.27243954 8.1921603 -5.27446377 7.43801342 -5.27654934 6.6610136 C-5.24711913 0.17964446 -5.24711913 0.17964446 0 0 Z " fill="#FFFFFF" transform="translate(112.13760280609131,293.737286567688)"/>
<path d="M0 0 C31.90070186 -5.21393639 69.04850126 -10.02666565 96.86975861 9.58334351 C114.80470132 22.79508021 130.25511294 38.9542666 145.44333267 55.1578598 C150.51202792 60.52879258 155.75605331 65.66396537 161.14355469 70.71386719 C216.4920408 122.67114306 216.4920408 122.67114306 218.1149292 161.97067261 C218.53055747 179.40182034 216.80894199 196.81390213 214 214 C187.88073553 219.2522215 155.90991866 223.54098768 132.25146484 208.68994141 C110.15886954 193.98951628 91.71612772 173.98407478 73.56982327 154.82674885 C68.10085588 149.08590694 62.46981672 143.55276716 56.71386719 138.10058594 C-3.44124476 81.04994234 -3.44124476 81.04994234 -4.48964834 43.58793974 C-4.60821546 28.9284484 -2.88657808 14.35493462 0 0 Z " fill="#FFFFFF" transform="translate(620,489)"/>
<path d="M0 0 C22.77 0 45.54 0 69 0 C69 22.77 69 45.54 69 69 C24.22365847 72.19831011 24.22365847 72.19831011 12.24609375 62.6953125 C2.02250347 53.47779249 -0.8280684 44.20072092 -1.56843567 30.62837219 C-1.83161038 20.34869842 -0.73617366 10.3064312 0 0 Z " fill="#FFFFFF" transform="translate(886,634)"/>
</svg>
